<svg width="104" height="180" viewBox="0 0 104 180" fill="none" xmlns="http://www.w3.org/2000/svg">
<path fill-rule="evenodd" clip-rule="evenodd" d="M72 100.015C90.7916 92.1782 104 73.6316 104 52C104 23.2812 80.7188 0 52 0C42.9385 0 34.4183 2.31779 27 6.39286V0H7V25.9252C2.54879 33.5906 0 42.4977 0 52C0 61.5023 2.54879 70.4094 7 78.0748V180H27V170V97.6071C34.4183 101.682 42.9385 104 52 104V170C52 175.523 56.4772 180 62 180H94C99.5229 180 104 175.523 104 170C104 164.477 99.5229 160 94 160H82C76.4771 160 72 155.523 72 150V100.015ZM52 84C69.6731 84 84 69.6731 84 52C84 34.3269 69.6731 20 52 20C41.8838 20 32.864 24.6942 27 32.0231C22.6195 37.4979 20 44.4431 20 52C20 58.6274 22.0147 64.7843 25.4651 69.8915C25.949 70.6078 26.4612 71.3035 27 71.9769C32.864 79.3058 41.8838 84 52 84Z" fill="#B4C7DD"/>
</svg>
