<svg width="120" height="512" viewBox="0 0 120 512" fill="none"
    xmlns="http://www.w3.org/2000/svg">
    <mask id="path-1-inside-1_1_39" fill="white">
        <path fill-rule="evenodd" clip-rule="evenodd" d="M90 17V34V60V71V75V118.883V155V187C90 192.523 85.5229 197 80 197H78H40C34.4772 197 30 201.477 30 207V208V219V268C30 273.523 34.4772 278 40 278H100C100.552 278 101 278.448 101 279C101 279.552 100.552 280 100 280H38C34.7288 280 31.8245 278.429 30 276.001V282V311V358C30 363.523 34.4772 368 40 368H100C100.552 368 101 368.448 101 369C101 369.552 100.552 370 100 370H38C34.7288 370 31.8245 368.429 30 366.001V420V446C30 451.523 34.4772 456 40 456H100C100.552 456 101 456.448 101 457C101 457.552 100.552 458 100 458H38C34.7288 458 31.8245 456.429 30 454.001V485V510V512H28V448V420V360V311V282V270V219V208V205C28 199.477 32.4772 195 38 195H78H78.2333C83.7562 195 88.2333 190.523 88.2333 185V160.677C86.4291 163.289 83.4144 165 80 165H19C18.4477 165 18 164.552 18 164C18 163.448 18.4477 163 19 163H78C83.5229 163 88 158.523 88 153V77.001C86.1755 79.4293 83.2712 81 80 81H19C18.4477 81 18 80.5523 18 80C18 79.4477 18.4477 79 19 79H78C83.5229 79 88 74.5229 88 69V60V34V15V12C88 6.47715 83.5229 2 78 2H1C0.447715 2 0 1.55228 0 1C0 0.447715 0.447715 0 1 0H80C85.2051 0 89.4814 3.97679 89.9562 9.05778C91.7778 6.59605 94.7025 5 98 5H119C119.552 5 120 5.44772 120 6C120 6.55228 119.552 7 119 7H100C94.4771 7 90 11.4772 90 17Z"/>
    </mask>
    <path fill-rule="evenodd" clip-rule="evenodd" d="M90 17V34V60V71V75V118.883V155V187C90 192.523 85.5229 197 80 197H78H40C34.4772 197 30 201.477 30 207V208V219V268C30 273.523 34.4772 278 40 278H100C100.552 278 101 278.448 101 279C101 279.552 100.552 280 100 280H38C34.7288 280 31.8245 278.429 30 276.001V282V311V358C30 363.523 34.4772 368 40 368H100C100.552 368 101 368.448 101 369C101 369.552 100.552 370 100 370H38C34.7288 370 31.8245 368.429 30 366.001V420V446C30 451.523 34.4772 456 40 456H100C100.552 456 101 456.448 101 457C101 457.552 100.552 458 100 458H38C34.7288 458 31.8245 456.429 30 454.001V485V510V512H28V448V420V360V311V282V270V219V208V205C28 199.477 32.4772 195 38 195H78H78.2333C83.7562 195 88.2333 190.523 88.2333 185V160.677C86.4291 163.289 83.4144 165 80 165H19C18.4477 165 18 164.552 18 164C18 163.448 18.4477 163 19 163H78C83.5229 163 88 158.523 88 153V77.001C86.1755 79.4293 83.2712 81 80 81H19C18.4477 81 18 80.5523 18 80C18 79.4477 18.4477 79 19 79H78C83.5229 79 88 74.5229 88 69V60V34V15V12C88 6.47715 83.5229 2 78 2H1C0.447715 2 0 1.55228 0 1C0 0.447715 0.447715 0 1 0H80C85.2051 0 89.4814 3.97679 89.9562 9.05778C91.7778 6.59605 94.7025 5 98 5H119C119.552 5 120 5.44772 120 6C120 6.55228 119.552 7 119 7H100C94.4771 7 90 11.4772 90 17Z" fill="#D9D9D9"/>
    <path d="M30 276.001L31.599 274.8L28 270.009V276.001H30ZM30 366.001L31.599 364.8L28 360.009V366.001H30ZM30 454.001L31.599 452.8L28 448.009V454.001H30ZM30 512V514H32V512H30ZM28 512H26V514H28V512ZM88.2333 160.677H90.2333V154.264L86.5878 159.54L88.2333 160.677ZM88 77.001H90V71.0094L86.401 75.7996L88 77.001ZM89.9562 9.05778L87.9649 9.24387L88.4517 14.4533L91.5639 10.2474L89.9562 9.05778ZM92 34V17H88V34H92ZM92 60V34H88V60H92ZM92 71V60H88V71H92ZM92 75V71H88V75H92ZM92 118.883V75H88V118.883H92ZM92 155V118.883H88V155H92ZM92 187V155H88V187H92ZM80 199C86.6274 199 92 193.627 92 187H88C88 191.418 84.4183 195 80 195V199ZM78 199H80V195H78V199ZM40 199H78V195H40V199ZM32 207C32 202.582 35.5817 199 40 199V195C33.3726 195 28 200.373 28 207H32ZM32 208V207H28V208H32ZM32 219V208H28V219H32ZM32 268V219H28V268H32ZM40 276C35.5817 276 32 272.418 32 268H28C28 274.627 33.3726 280 40 280V276ZM100 276H40V280H100V276ZM103 279C103 277.343 101.657 276 100 276V280C99.4477 280 99 279.552 99 279H103ZM100 282C101.657 282 103 280.657 103 279H99C99 278.448 99.4477 278 100 278V282ZM38 282H100V278H38V282ZM28.401 277.202C30.587 280.112 34.0733 282 38 282V278C35.3843 278 33.0619 276.747 31.599 274.8L28.401 277.202ZM32 282V276.001H28V282H32ZM32 311V282H28V311H32ZM32 358V311H28V358H32ZM40 366C35.5817 366 32 362.418 32 358H28C28 364.627 33.3726 370 40 370V366ZM100 366H40V370H100V366ZM103 369C103 367.343 101.657 366 100 366V370C99.4477 370 99 369.552 99 369H103ZM100 372C101.657 372 103 370.657 103 369H99C99 368.448 99.4477 368 100 368V372ZM38 372H100V368H38V372ZM28.401 367.202C30.587 370.112 34.0733 372 38 372V368C35.3843 368 33.0619 366.747 31.599 364.8L28.401 367.202ZM32 420V366.001H28V420H32ZM28 420V446H32V420H28ZM40 454C35.5817 454 32 450.418 32 446H28C28 452.627 33.3726 458 40 458V454ZM100 454H40V458H100V454ZM103 457C103 455.343 101.657 454 100 454V458C99.4477 458 99 457.552 99 457H103ZM100 460C101.657 460 103 458.657 103 457H99C99 456.448 99.4477 456 100 456V460ZM38 460H100V456H38V460ZM28.401 455.202C30.587 458.112 34.0733 460 38 460V456C35.3843 456 33.0619 454.747 31.599 452.8L28.401 455.202ZM28 454.001V485H32V454.001H28ZM28 485V510H32V485H28ZM28 510V512H32V510H28ZM30 510H28V514H30V510ZM30 512V448H26V512H30ZM30 448V420H26V448H30ZM26 360V420H30V360H26ZM26 311V360H30V311H26ZM26 282V311H30V282H26ZM26 270V282H30V270H26ZM26 219V270H30V219H26ZM26 208V219H30V208H26ZM26 205V208H30V205H26ZM38 193C31.3726 193 26 198.373 26 205H30C30 200.582 33.5817 197 38 197V193ZM78 193H38V197H78V193ZM78.2333 193H78V197H78.2333V193ZM86.2333 185C86.2333 189.418 82.6516 193 78.2333 193V197C84.8608 197 90.2333 191.627 90.2333 185H86.2333ZM86.2333 160.677V185H90.2333V160.677H86.2333ZM80 167C84.099 167 87.7172 164.943 89.8788 161.814L86.5878 159.54C85.141 161.635 82.7298 163 80 163V167ZM19 167H80V163H19V167ZM16 164C16 165.657 17.3432 167 19 167V163C19.5523 163 20 163.448 20 164H16ZM19 161C17.3431 161 16 162.343 16 164H20C20 164.552 19.5523 165 19 165V161ZM78 161H19V165H78V161ZM86 153C86 157.418 82.4183 161 78 161V165C84.6274 165 90 159.627 90 153H86ZM86 77.001V153H90V77.001H86ZM80 83C83.9267 83 87.413 81.1118 89.599 78.2023L86.401 75.7996C84.9381 77.7468 82.6157 79 80 79V83ZM19 83H80V79H19V83ZM16 80C16 81.6569 17.3431 83 19 83V79C19.5523 79 20 79.4477 20 80H16ZM19 77C17.3431 77 16 78.3432 16 80H20C20 80.5523 19.5523 81 19 81V77ZM78 77H19V81H78V77ZM86 69C86 73.4183 82.4183 77 78 77V81C84.6274 81 90 75.6274 90 69H86ZM86 60V69H90V60H86ZM86 34V60H90V34H86ZM86 15V34H90V15H86ZM86 12V15H90V12H86ZM78 4C82.4183 4 86 7.58172 86 12H90C90 5.37258 84.6274 0 78 0V4ZM1 4H78V0H1V4ZM-2 1C-2 2.65685 -0.656854 4 1 4V0C1.55228 0 2 0.447715 2 1H-2ZM1 -2C-0.656854 -2 -2 -0.656854 -2 1H2C2 1.55228 1.55228 2 1 2V-2ZM80 -2H1V2H80V-2ZM91.9475 8.87169C91.3775 2.77237 86.2473 -2 80 -2V2C84.1629 2 87.5852 5.18121 87.9649 9.24387L91.9475 8.87169ZM98 3C94.0416 3 90.531 4.91866 88.3485 7.86814L91.5639 10.2474C93.0246 8.27344 95.3634 7 98 7V3ZM119 3H98V7H119V3ZM122 6C122 4.34315 120.657 3 119 3V7C118.448 7 118 6.55229 118 6H122ZM119 9C120.657 9 122 7.65685 122 6H118C118 5.44771 118.448 5 119 5V9ZM100 9H119V5H100V9ZM92 17C92 12.5817 95.5817 9 100 9V5C93.3726 5 88 10.3726 88 17H92Z" fill="#F7CAC9" mask="url(#path-1-inside-1_1_39)"/>
</svg>
